<svg width="15" height="14" viewBox="0 0 15 14" fill="none" xmlns="http://www.w3.org/2000/svg">
<path d="M6.76839 1.09367C7.07599 0.189974 8.35411 0.189977 8.66172 1.09367L9.64524 3.98313C9.78318 4.3884 10.1638 4.66091 10.5919 4.66091H13.6721C14.6521 4.66091 15.0472 5.92416 14.242 6.48262L11.8313 8.15456C11.4644 8.40901 11.3106 8.87584 11.4545 9.29851L12.394 12.0586C12.7048 12.9718 11.6701 13.7523 10.8774 13.2025L8.28495 11.4046C7.9422 11.1668 7.48791 11.1668 7.14516 11.4046L4.55269 13.2025C3.76002 13.7523 2.72529 12.9718 3.03613 12.0586L3.97561 9.29851C4.11948 8.87584 3.96572 8.40901 3.59884 8.15456L1.1881 6.48263C0.382867 5.92416 0.778054 4.66091 1.758 4.66091H4.83821C5.26631 4.66091 5.64692 4.3884 5.78487 3.98313L6.76839 1.09367Z" fill="#FFA858"/>
</svg>
